<?xml version="1.0" encoding="utf-8"?>
<!-- Generator: Adobe Illustrator 19.2.1, SVG Export Plug-In . SVG Version: 6.00 Build 0)  -->
<svg version="1.1" id="Capa_2" xmlns="http://www.w3.org/2000/svg" xmlns:xlink="http://www.w3.org/1999/xlink" x="0px" y="0px"
	 viewBox="0 0 765.6 161" style="enable-background:new 0 0 765.6 161;" xml:space="preserve">
<style type="text/css">
	.st0{fill-rule:evenodd;clip-rule:evenodd;fill:#6EA3C8;}
	.st1{fill:#6EA3C8;}
	.st2{fill-rule:evenodd;clip-rule:evenodd;fill:#2B517E;}
	.st3{fill:#2B517E;}
</style>
<g>
	<path class="st0" d="M226.8,95.4c0,0-10.8,9.3-22.8,17.2s-23.3,13.1-23.3,13.1s-5.4,2.9-8.3-2.1c-3-5.1,2.6-8.5,2.6-8.5
		s4.2-2.7,7-4.2c2.9-1.4,11.5-6.3,19.7-12.5c13.7-10.4,16.5-12.9,16.5-12.9s-16.9-22.7-21-35.7C187.4,18.7,188.3,5,188.3,5
		s2.6-5.7,10.2-5s10.9,9.3,10.9,9.3s1.7,21.3,3.8,29.8c4.8,19.2,17.7,33.9,17.7,33.9s7.4-6.7,13.7-18.1c6.4-11.3,8.6-19.5,8.6-19.5
		s3.5-5.1,8.8-2.4c1.5,0.8,2.6,4.5,2.6,4.5s1.4,8-9.3,24C244,78.7,239.3,84,239.3,84s22,22.1,58.7,37.4c5.5,2.3,44.1,23,122.7,25.9
		c118.6-3.2,177.6-19.2,177.6-19.2s-23.7,11.3-46.5,17.3c-27.5,7.1-80.2,14.3-132.7,13.4c-56.6-1-108.3-14.1-125.3-20.8
		C251.9,121.5,226.8,95.4,226.8,95.4z"/>
	<g>
		<path class="st1" d="M16.4,40.2c1.3,1.5,2.4,3.1,3.3,4.8c0.9,1.7,1,3.6,0.4,5.7c-0.4,1.3-1,2.5-1.9,3.4c-0.9,1-1.9,1.7-3,2.3
			c-1.1,0.6-2.3,0.9-3.6,0.9c-1.3,0.1-2.5-0.2-3.7-0.7c-3.4-1.3-5.6-3.7-6.7-7.1c-1.1-3.4-1.4-7.1-1-11.2c0.4-4,1.4-8,3-11.9
			c1.6-3.9,3.4-7.1,5.4-9.6c3.6-4.2,7.6-7,12.2-8.5c4.5-1.5,9.3-2.2,14.2-2.1c4.9,0.1,9.8,0.7,14.8,1.8c4.9,1.1,9.6,2.1,13.8,3
			c1.9,0.4,4,0.8,6.2,1.2c2.2,0.4,4.4,0.7,6.5,0.8c2.1,0.2,4.3,0.1,6.4-0.2c2.1-0.3,4.1-1,6-2.1C90,10,91.5,9.3,93,8.9
			c1.5-0.5,3.1-0.4,4.8,0.1c2.1,0.7,3.8,2.1,5,4.1c1.2,2,1.6,4.1,1.1,6.3c-0.5,2.1-1.6,3.9-3.2,5.1c-1.6,1.3-3.5,2.2-5.7,2.7
			c-2.1,0.5-4.3,0.8-6.6,0.8c-2.2,0-4.2-0.2-6-0.5c-2.8-0.4-5.5-1.1-8.1-2c-2.7-0.9-5.3-1.9-7.9-3c-2.6-1.1-5.2-2.2-7.8-3.3
			c-2.6-1.1-5.2-2.1-7.7-3.1c-2.2-0.8-4.5-1.6-6.7-2.3c-2.2-0.7-4.5-1.2-6.7-1.6c-2.2-0.4-4.5-0.4-6.8-0.2c-2.3,0.2-4.6,0.8-7,1.7
			c-3,1.2-5.4,2.9-7.2,4.9c-1.8,2-3.1,4.3-3.8,6.7c-0.7,2.4-0.8,4.9-0.2,7.5C13,35.3,14.3,37.8,16.4,40.2z M16.8,105.3
			c0.5-5.8,1.2-11.6,2.1-17.4c0.9-5.8,2.1-11.6,3.7-17.4c-0.5,0.2-1.1,0.4-1.7,0.7c-0.6,0.3-1.2,0.3-1.7,0.1c-0.8-0.1-1.5-0.5-2-1.1
			c-0.5-0.6-0.8-1.3-0.9-2c-0.1-0.7,0-1.4,0.3-2.1c0.3-0.7,0.9-1.2,1.7-1.6c2.1-1.1,4.3-1.9,6.6-2.3l3.2-10.7
			c1.2-4,2.5-8.2,3.7-12.5c1.3-4.4,3.1-8.4,5.4-11.9c0.9-1.4,2.1-2.7,3.6-3.7c1.5-1,3-1.7,4.6-2c1.6-0.3,3.1-0.2,4.7,0.4
			c1.5,0.6,2.9,1.8,4,3.6c1,1.6,1.4,3.3,1.1,5c-0.3,1.7-0.8,3.5-1.6,5.2c-0.8,1.7-1.8,3.4-2.9,5c-1.1,1.6-2,3.2-2.8,4.6
			c-1.3,2.4-2.6,4.9-3.7,7.4c-1.2,2.5-2.3,5-3.4,7.6c2-0.2,4-0.6,5.9-1.1c1.9-0.5,3.7-1.2,5.6-2.1c1.7-0.9,3.5-1.7,5.3-2.4
			c1.8-0.7,3.7-0.7,5.7,0.2c1.3,0.5,2.4,1.3,3.4,2.3c0.9,1,1.6,2.2,1.9,3.4c0.4,1.3,0.5,2.6,0.3,3.9c-0.2,1.3-0.6,2.6-1.5,3.8
			c-1.4,2-3.3,3.4-5.7,4.1c-2.3,0.7-4.8,0.9-7.4,0.8c-2.6-0.2-5.2-0.6-7.7-1.3c-2.6-0.7-4.8-1.4-6.7-2L37,68.9
			c-2.3,5.5-4.4,10.5-6.1,15.1c-1.7,4.5-3.3,9.1-4.7,13.5c-0.5,1.6-0.9,3.4-1.1,5.3c-0.2,1.9-0.7,3.5-1.5,5
			c-0.5,0.9-1.1,1.5-1.9,1.7c-0.8,0.2-1.5,0.2-2.3-0.2c-0.8-0.3-1.4-0.8-1.9-1.5C16.9,107.1,16.7,106.3,16.8,105.3z"/>
	</g>
	<g>
		<path class="st1" d="M294.7,72.3c-1.2,2.3-2.2,4.6-3.2,6.8c-1,2.3-2,4.6-2.9,7c-0.3,0.8-0.8,1.9-1.3,3.1c-0.6,1.2-1.1,2.4-1.6,3.7
			c-0.5,1.3-0.8,2.4-1,3.5c-0.2,1.1-0.1,1.9,0.5,2.3c0.8,0.7,2.2,0.4,4.1-0.9c1.9-1.4,3.8-3.1,5.8-5.1c2-2,3.8-4.1,5.5-6
			c1.7-2,2.7-3.2,3.1-3.8c1.5-1.9,2.9-3.8,4.2-5.7c1.3-1.9,2.6-3.8,3.8-5.8c0.4-0.6,0.9-1.4,1.4-2.3c0.5-0.9,1.2-1.6,1.9-2.3
			c0.7-0.6,1.5-1,2.3-1.1c0.8-0.1,1.6,0.4,2.6,1.4c1.2,1.4,1.3,2.8,0.5,4.2c-0.8,1.5-1.6,2.8-2.4,3.9c-3.2,4.8-6.6,9.2-10,13
			c-3.5,3.9-7,7.5-10.7,10.8c-1.6,1.5-3.3,2.9-5.3,4.4c-1.9,1.5-4.1,2.3-6.4,2.5c-1.8,0.2-3.4,0-4.7-0.6c-1.4-0.6-2.6-1.5-3.6-2.6
			c-1-1.1-1.9-2.4-2.7-3.8c-0.7-1.4-1.3-2.9-1.7-4.3c-0.7-2.2-1-4.6-0.8-7.2c0.2-2.6,0.7-5.2,1.3-7.8c0.7-2.6,1.5-5.1,2.5-7.5
			c1-2.5,1.9-4.7,2.7-6.8c1.7-4.2,3.1-7.6,4.2-10.3c1.1-2.7,2-4.8,2.7-6.4c0.7-1.6,1.3-2.7,1.8-3.5c0.5-0.8,1-1.4,1.6-2
			c1.8-1.6,3.7-2.3,5.8-2.2c2.1,0.1,3.9,0.8,5.6,2c1.6,1.2,2.8,2.8,3.5,4.8c0.7,2,0.5,4.1-0.5,6.3L294.7,72.3z M297.3,21.9
			c0-2.8,1-5.3,3.1-7.3s4.4-3.1,7.1-3.1c2.8,0,5.3,1,7.3,3.1s3.1,4.5,3.1,7.3c0,2.7-1,5.1-3.1,7.1s-4.5,3.1-7.3,3.1
			c-2.7,0-5.1-1-7.1-3.1S297.3,24.6,297.3,21.9z"/>
		<path class="st1" d="M328.8,90.7c0.5,3.1,1.7,5.3,3.5,6.5c1.8,1.2,3.8,1.8,6,1.7c2.2-0.1,4.6-0.5,7.1-1.5c2.5-0.9,4.6-2,6.5-3.1
			c4.7-2.9,8.8-6.6,12.4-11.1c3.6-4.4,6.8-9,9.6-13.7c0.4-0.6,0.8-1.3,1.2-1.9c0.4-0.6,0.9-1.1,1.6-1.4c1.2-0.5,2.2-0.4,3.3,0.2
			c1,0.7,1.7,1.6,1.9,2.7c0.1,0.9-0.1,2-0.7,3.1c-0.6,1.2-1.3,2.3-2,3.5c-0.8,1.2-1.6,2.2-2.4,3.2c-0.8,1-1.5,1.9-2,2.6
			c-3.7,4.8-7.9,9.2-12.7,13c-4.8,3.9-10,6.9-15.7,9.1c-4.9,1.9-9.7,2.6-14.4,2.3c-4.7-0.4-8.9-2.6-12.7-6.7
			c-4-4.4-6.4-9.3-7.1-14.6s-0.4-10.8,1-16.5c0.8-3.2,2-6.5,3.5-9.7c1.5-3.2,3.4-6.2,5.6-8.9c2.2-2.7,4.7-5,7.5-6.9
			c2.8-1.9,6.1-3.1,9.7-3.6c5.7-0.7,10.5-0.3,14.7,1.2c4.1,1.5,7.6,4.7,10.4,9.7c2.1,3.7,3.2,7.3,3.5,11c0.2,3.7-0.7,7.3-2.7,11
			c-1.8,3.5-4.1,6.1-6.9,7.8c-2.8,1.8-5.9,3.1-9.2,3.8s-6.7,1.3-10.3,1.4c-3.6,0.2-7,0.2-10.2,0.2C328.4,87.3,328.5,89.1,328.8,90.7
			z M347.5,66.5c0.5-0.6,1.4-1.8,2.5-3.6c1.2-1.8,2.2-3.6,3.1-5.6c0.9-1.9,1.6-3.8,2-5.5c0.4-1.7,0-2.9-1.2-3.5
			c-1.6-0.8-3.2-0.7-4.9,0.4c-1.7,1.1-3.4,2.5-5,4.3c-1.6,1.8-3.1,3.7-4.3,5.7c-1.3,2-2.2,3.5-2.8,4.6c-1.4,2.3-2.6,4.7-3.8,7.1
			c-1.2,2.4-2.1,4.9-3,7.5c3.5-0.8,6.6-2.3,9.6-4.2C342.6,71.6,345.2,69.2,347.5,66.5z"/>
		<path class="st1" d="M404.8,94c-1.4,2.5-3.1,4.7-5.3,6.6c-2.1,1.9-4.5,3.3-7.1,4.3c-2.6,1-5.4,1.5-8.2,1.6
			c-2.9,0.1-5.7-0.5-8.4-1.6c-2.8-1-5.3-2.6-7.3-4.8c-2-2.1-3.6-4.5-4.6-7.1c-1-2.6-1.5-5.4-1.5-8.3c0.1-2.9,0.8-5.8,2.1-8.5
			c0.7-1.5,1.8-2.9,3.1-4.4c1.3-1.5,2.8-2.7,4.4-3.7c1.6-1,3.3-1.7,5.1-2c1.8-0.4,3.6-0.2,5.3,0.4c-0.3-2-0.4-3.8-0.3-5.3
			c0.1-2.7,0.7-5.5,1.8-8.2c1.1-2.8,2.6-5.3,4.4-7.5c1.8-2.2,4-4.1,6.5-5.6c2.5-1.5,5.2-2.2,8.2-2.2c3.2-0.1,6,0.8,8.2,2.7
			c2.2,1.9,3.7,4.1,4.4,6.7c0.7,2.6,0.7,5.2-0.2,7.9c-0.9,2.7-2.8,4.9-5.7,6.6c-1.2,0.6-2.5,1.2-4.2,1.7c-1.6,0.5-3.2,0.7-4.8,0.6
			c2.6,1.4,4.5,3.3,5.7,5.8c1.2,2.5,1.8,5.2,2,8.2c0.2,2.9-0.1,5.8-0.8,8.7C406.7,89.2,405.8,91.8,404.8,94z M379.7,89.1
			c-0.5,2.4-0.4,4.4,0.5,5.9c0.8,1.5,2,2.6,3.5,3.3c1.5,0.7,3.1,0.9,5,0.8c1.9-0.2,3.6-0.7,5.1-1.6c1.5-0.9,2.7-2.1,3.6-3.8
			c0.9-1.6,1.1-3.5,0.7-5.7c-0.5-2.4-1.8-4.4-3.9-6c-2.1-1.6-4-3.3-5.8-4.9c-0.5,1.2-1.2,2.2-2,3.1c-0.8,0.9-1.7,1.9-2.6,2.7
			c-0.9,0.9-1.7,1.8-2.4,2.8C380.5,86.7,380,87.8,379.7,89.1z M402.8,51.4c1.4,0.5,2.5,0.5,3.4,0c0.9-0.5,1.5-1.3,1.7-2.2
			c0.3-0.9,0.2-1.9-0.2-2.9c-0.4-1-1.3-1.6-2.5-2c-2.4-0.6-4.7-0.4-6.8,0.5c-2.1,1-3.7,2.5-4.9,4.5c-1,1.7-1.7,3.5-1.9,5.5
			c-0.2,2,0.3,3.9,1.4,5.7c0.6,0.9,1.3,1.5,2,1.7c0.7,0.2,1.4,0.3,2.1,0.3c-1.6-0.9-2.4-2.1-2.6-3.6c-0.2-1.5,0.1-2.9,0.8-4.2
			c0.7-1.3,1.7-2.4,3.1-3.1C399.7,50.9,401.2,50.8,402.8,51.4z"/>
		<path class="st1" d="M476.4,81.4c-1.6,3.9-3.6,7.5-6,10.9c-2.5,3.4-5.3,6.3-8.6,8.6c-3.2,2.4-6.8,4-10.8,5
			c-3.9,1-8.1,1.1-12.5,0.2c-2.4-0.5-4.6-1.4-6.6-2.6c-2-1.2-3.6-2.7-4.7-4.5c-0.4,0.8-0.8,1.7-1.2,2.5c-0.4,0.8-0.7,1.7-1,2.5
			c-1.8,4-3.5,8.1-5.2,12.4c-1.7,4.3-2.8,8.6-3.3,13c-0.1,1-0.5,1.9-1.2,2.7c-0.7,0.7-1.4,1.2-2.2,1.3c-0.8,0.2-1.6,0-2.4-0.4
			c-0.8-0.4-1.3-1.3-1.6-2.5c-0.8-3.1-1.2-6.6-1-10.4s0.6-7.7,1.3-11.9c0.7-4.1,1.7-8.3,2.9-12.6c1.2-4.2,2.5-8.4,3.9-12.4
			c1.4-4,2.8-7.8,4.2-11.4c1.4-3.6,2.6-6.7,3.7-9.4c0.8-2.3,1.7-4.6,2.7-6.8c0.9-2.2,1.9-4.3,2.8-6.4c0.6-1.5,1.3-2.9,2-4.2
			c0.7-1.4,1.8-2.5,3.3-3.3c1.7-0.9,3.4-1.3,5.3-1.1c1.8,0.2,3.4,0.9,4.8,2c1.4,1.1,2.4,2.5,3.1,4.1c0.7,1.6,0.8,3.4,0.4,5.3
			c1.4-1.4,2.8-2.7,4.3-4.1c1.5-1.4,3.1-2.5,4.7-3.5c1.6-0.9,3.3-1.6,5-2c1.7-0.4,3.5-0.4,5.3,0c3.8,0.9,6.6,2.9,8.4,5.9
			c1.8,3,3,6.4,3.5,10.2c0.5,3.8,0.4,7.8-0.3,11.9C478.8,74.7,477.7,78.3,476.4,81.4z M459.7,73.7c1.5-3.1,2.8-6.4,4-9.9
			c1.2-3.5,1.7-6.9,1.5-10.4c-0.2-2.1-0.8-3.3-1.7-3.7c-0.9-0.4-2-0.3-3.2,0.3c-1.2,0.6-2.4,1.4-3.7,2.5c-1.3,1.1-2.3,2-3,2.7
			c-4.7,4.7-8.8,10.2-12.2,16.3c-3.5,6.2-6.3,12.2-8.5,18.2c-0.6,3.6,0,6.1,1.8,7.7c1.8,1.6,4.3,1.5,7.3-0.2c2.2-1.2,4.2-2.6,6-4.5
			c1.8-1.8,3.4-3.8,4.8-6c1.4-2.1,2.7-4.4,3.8-6.7C457.8,78,458.8,75.8,459.7,73.7z"/>
		<path class="st1" d="M518.2,53.3c-2.2,3.5-4.4,6.9-6.6,10.4c-2.2,3.5-4.3,7-6.4,10.6c-0.2,0.4-0.7,1.3-1.4,2.6
			c-0.7,1.3-1.6,2.8-2.5,4.6c-0.9,1.7-1.9,3.6-2.8,5.5c-0.9,1.9-1.8,3.7-2.5,5.4c-0.7,1.7-1.3,3.1-1.6,4.2c-0.3,1.2-0.3,1.8,0.2,2
			c0.6,0.3,1.3,0.3,2.1,0.1c0.8-0.3,1.5-0.7,2.3-1.2c0.7-0.5,1.4-1.1,2-1.8c0.6-0.7,1.1-1.2,1.4-1.5c2.4-2.5,4.8-5.5,7.2-8.9
			c2.4-3.4,4.7-7,6.9-10.7c2.2-3.7,4.2-7.4,6.1-11.1c1.9-3.7,3.5-6.9,4.9-9.7c1.2-2.3,2.3-4.6,3.5-6.9c1.2-2.3,2.6-4.1,4.4-5.5
			c1.9-1.4,3.8-1.9,5.9-1.6c2,0.3,3.8,1,5.3,2.3c1.5,1.3,2.5,2.9,3.1,4.8c0.6,1.9,0.3,4-0.7,6c-1.6,3.1-3.1,6.3-4.6,9.5
			c-1.5,3.2-3,6.4-4.5,9.7c-1.9,4.2-3.5,7.8-4.9,10.8c-1.4,3-2.5,5.5-3.3,7.5c-0.8,2-1.5,3.7-1.9,4.9c-0.4,1.3-0.6,2.4-0.5,3.3
			c1.6-0.1,3.1-0.8,4.6-2.1c1.5-1.3,3-2.8,4.3-4.6c1.4-1.7,2.6-3.5,3.7-5.3c1.1-1.8,2-3.2,2.7-4.4c1.2-1.8,2.3-3.6,3.4-5.4
			c1.1-1.8,2.2-3.6,3.4-5.4c0.3-0.6,0.7-1.3,1.2-2.1c0.5-0.8,1-1.5,1.6-2.1c0.6-0.6,1.2-1,2-1.3c0.7-0.2,1.6-0.1,2.5,0.5
			c1.5,0.8,1.9,2.3,1.3,4.2c-0.6,2-1.5,4.1-2.8,6.3c-1.3,2.2-2.7,4.3-4.3,6.3c-1.6,2-2.7,3.4-3.3,4.1c-1.2,1.6-2.5,3.4-3.9,5.5
			c-1.5,2.1-3.1,4.1-4.8,6s-3.6,3.5-5.6,4.9c-2,1.4-4.1,2.1-6.3,2.4c-2,0.2-3.8-0.3-5.3-1.4c-1.6-1.2-2.9-2.6-3.8-4.5
			c-1-1.8-1.8-3.8-2.3-5.9c-0.5-2.1-0.7-4-0.5-5.7l0.5-3.8l-4.9,7.1c-1.2,1.8-2.5,3.6-3.9,5.4c-1.5,1.8-3.1,3.5-4.9,4.9
			c-1.8,1.5-3.7,2.6-5.8,3.4c-2.1,0.8-4.3,0.9-6.8,0.4c-3.1-0.7-5.4-2.2-6.8-4.5c-1.4-2.2-2.1-4.8-2.3-7.6c-0.2-2.8,0.1-5.7,0.7-8.6
			c0.6-2.9,1.3-5.3,1.9-7.3c1.8-5.3,3.9-10.6,6.4-15.7c2.5-5.1,5.3-10,8.6-14.6c0.8-1.4,1.8-2.7,2.7-4.1c1-1.4,2.2-2.5,3.7-3.3
			c2.2-1.3,4.6-1.5,7.1-0.7c2.5,0.8,4.3,2.3,5.5,4.6c0.7,1.5,1,3,0.9,4.6C519.5,50.5,519,51.9,518.2,53.3z"/>
		<path class="st1" d="M583.3,78.3c0.9-2.8,2-5.6,3.1-8.3c1.2-2.7,2.2-5.4,3.3-8.2c0.3-0.9,0.8-2.1,1.3-3.5c0.6-1.4,1.1-2.8,1.5-4.2
			c0.4-1.4,0.7-2.7,0.8-3.8c0.1-1.2-0.1-2-0.5-2.5c-0.6-0.7-1.7-0.6-3.1,0.5c-1.5,1-3.1,2.6-4.9,4.6c-1.8,2-3.7,4.4-5.7,7
			c-2,2.6-3.8,5.2-5.5,7.6c-1.7,2.5-3.1,4.6-4.3,6.5c-1.2,1.9-1.9,3-2.1,3.5c-1.8,3-3.6,6.1-5.5,9.3c-1.9,3.2-3.4,6.5-4.4,9.8
			c-0.3,1-0.6,2.2-0.9,3.5c-0.3,1.3-0.7,2.5-1.2,3.5c-0.5,1-1.1,1.7-1.9,2.2c-0.8,0.5-1.8,0.4-2.9-0.2c-0.9-0.4-1.6-1.2-1.9-2.3
			c-0.3-1.1-0.5-2.3-0.5-3.7c0-1.4,0.1-2.7,0.2-3.9c0.2-1.3,0.2-2.3,0.2-3c0.6-7.5,1.7-14.9,3.3-22.1c0.7-3.6,1.5-7.2,2.2-10.8
			c0.7-3.7,1.7-7.2,2.8-10.5c0.6-1.9,1.8-3.6,3.6-5.2c1.8-1.6,3.7-2.5,5.8-2.7c1.7-0.1,3.2,0.2,4.6,0.9c1.4,0.7,2.5,1.6,3.4,2.9
			c0.8,1.3,1.4,2.7,1.6,4.2c0.2,1.6-0.1,3.1-0.8,4.7c1.2-1.6,2.5-3.2,4.1-4.9c1.6-1.7,3.2-3.3,5-4.9c1-0.9,2.4-1.8,3.9-2.6
			c1.6-0.8,3.2-1.4,4.9-1.8c1.7-0.4,3.5-0.6,5.2-0.6c1.7,0,3.3,0.3,4.6,0.9c2.4,1.3,4.2,2.8,5.3,4.6c1.1,1.8,2.2,3.8,3.2,5.9
			c7.1-8.4,14.2-12.1,21.2-11.3c1.3,0.2,2.4,0.7,3.4,1.5c1,0.8,1.9,1.8,2.7,2.9c0.8,1.2,1.4,2.4,1.9,3.6c0.5,1.3,0.8,2.4,1,3.3
			c0.6,3.7,0.5,7.5-0.4,11.5c-0.9,4-2.3,7.9-4.1,11.7c-1.8,3.8-4,7.3-6.4,10.6c-2.4,3.3-4.9,6-7.4,8.2c-0.6,0.4-1.3,1.2-2.1,2.2
			c-0.8,1-1.4,2-1.7,2.7c-0.4,0.8-0.3,1.3,0.2,1.5c0.5,0.2,1.7-0.3,3.7-1.6c2-1.3,4.2-3,6.5-5.3c2.4-2.3,4.7-4.8,6.9-7.5
			c2.3-2.7,4.3-5.3,6.1-7.9c1.8-2.6,3.3-4.8,4.5-6.6c0.6-1,1.3-2.1,2.1-3.2c0.8-1.1,1.9-1.5,3.4-1.2c1,0.2,1.8,0.6,2.2,1.2
			c0.4,0.6,0.6,1.2,0.5,2c-0.1,0.7-0.2,1.5-0.5,2.3c-0.3,0.8-0.6,1.5-0.9,2.1c-2.1,3.4-4.4,6.5-7,9.6c-2.6,3-5.2,6-7.9,8.9
			c-1.4,1.5-2.8,3-4.4,4.5c-1.6,1.5-3.2,2.9-4.9,4.2c-1.7,1.3-3.4,2.5-5.3,3.5c-1.8,1-3.7,1.7-5.7,2c-2.3,0.4-4.2,0.2-5.6-0.8
			s-2.5-2.2-3.1-3.8c-0.7-1.6-1.1-3.4-1.2-5.4c-0.1-2,0-3.8,0.3-5.5c0.8-5,2.4-9.6,4.6-13.7c2.2-4.1,4.7-8.3,7.5-12.6
			c0.4-0.6,1.1-1.7,2-3.3c0.9-1.6,1.8-3.2,2.6-4.9c0.8-1.7,1.3-3.4,1.6-5c0.3-1.6,0.1-2.9-0.8-3.7c-0.4-0.4-1.3-0.1-2.7,0.9
			c-1.4,1-2.9,2.2-4.5,3.6c-1.6,1.4-3,2.8-4.3,4.1c-1.3,1.3-2.1,2.1-2.3,2.4c-2.8,3.1-5.5,6.4-8,9.7c-2.5,3.4-5,6.7-7.4,10
			c-2,2.8-3.9,5.7-5.7,8.7c-1.8,3-3.5,6-4.9,9c-0.5,0.8-1,1.9-1.3,3.2c-0.4,1.3-1,2.3-1.8,2.9c-0.8,0.8-1.8,1.1-3,0.9
			c-1.2-0.3-1.9-0.9-2.4-1.8c-0.4-1-0.5-2.6-0.2-4.8c0.3-2.1,0.8-4.4,1.4-6.8c0.6-2.4,1.3-4.6,2-6.7C582.5,80.7,583,79.2,583.3,78.3
			z"/>
		<path class="st1" d="M714.1,54.1c-1.8,3.2-3.5,6.5-5.3,9.7c-1.7,3.2-3.3,6.5-4.8,9.8c-0.8,2-1.6,4-2.4,6s-1.5,4.1-2.1,6.2
			c-0.5,1.8-1.2,3.8-1.9,6.2c-0.7,2.4-0.8,4.5-0.3,6.5c1.6-0.6,3.1-1.6,4.6-3.1c1.5-1.4,2.9-3,4.2-4.7c1.3-1.7,2.5-3.5,3.7-5.3
			c1.2-1.8,2.1-3.4,3-4.6c1.3-1.9,2.5-3.8,3.7-5.7c1.2-1.9,2.4-3.9,3.5-5.9c0.4-0.7,1-1.4,1.8-2c0.8-0.6,1.6-1,2.4-1.2
			s1.5,0,2.1,0.4c0.6,0.4,1,1.3,1.1,2.5c0.2,1.4-0.2,2.8-1.2,4.3c-1,1.5-1.8,2.8-2.4,3.8c-1.4,2.1-3.1,4.8-5.2,8.1
			c-2.1,3.3-4.4,6.5-6.9,9.5c-2.5,3-5.1,5.7-7.8,7.9c-2.7,2.2-5.2,3.4-7.6,3.5c-1.6,0.1-3-0.3-4.4-1.3c-1.4-1-2.6-2.3-3.8-3.8
			c-1.2-1.6-2.1-3.3-3-5.1c-0.8-1.8-1.5-3.6-1.9-5.4l-2.2,3.5c-1.5,2.2-3.2,4.4-5.1,6.7c-1.9,2.3-4.2,3.9-6.8,4.9
			c-2.3,0.9-4.5,1.2-6.6,0.6c-2.1-0.5-4-1.5-5.8-2.9c-1.8-1.4-3.4-3.1-4.7-5.1c-1.4-2-2.5-3.9-3.3-5.8c-1.9-4.4-2.7-8.7-2.6-13
			s1-8.6,2.4-13c1.2-3.6,2.6-6.9,4.5-10.1c1.8-3.2,4.1-6.1,6.7-8.9c2-2.1,4.3-3.9,6.9-5.4c2.6-1.5,5.3-2.6,8.2-3.2
			c2.8-0.6,5.7-0.8,8.7-0.5s5.8,1.3,8.6,2.8c1,0.6,2,1.5,2.7,2.5c0.8,1,1.4,2.2,2,3.5c0.5-0.8,1.1-1.7,1.7-2.5
			c0.6-0.8,1.4-1.6,2.2-2.2c1.9-1.5,3.9-2.1,6-1.8c2.1,0.3,3.9,1,5.4,2.4c1.5,1.3,2.5,3,3.1,5C715.7,49.9,715.3,52,714.1,54.1z
			 M692.4,55.8c0-1.5-0.2-2.9-0.5-4.3c-0.4-1.4-1.1-2.4-2.1-3.1c-1.7-1.2-3.6-0.9-5.7,0.6c-2.1,1.6-4.2,3.6-6.1,6.1
			c-1.9,2.5-3.7,5.1-5.2,7.7c-1.5,2.6-2.5,4.4-3.1,5.3c-1.6,2.8-3,5.7-4.3,8.7c-1.3,3-2.3,6-3.1,9.2c-0.2,0.8-0.4,1.9-0.5,3.3
			c-0.1,1.4-0.1,2.7,0,4.1c0.1,1.4,0.4,2.6,0.9,3.7c0.5,1.1,1.4,1.7,2.5,1.8c1.8,0.2,3.4-0.3,4.9-1.6c1.5-1.3,2.7-2.6,3.6-3.8
			c2.1-2.7,4-5.5,5.7-8.5c1.7-2.9,3.2-5.9,4.7-8.9c1.6-3.5,3.1-7.1,4.6-10.8C690.2,61.5,691.5,58.3,692.4,55.8z"/>
		<path class="st1" d="M750.7,94c-1.4,2.5-3.1,4.7-5.3,6.6c-2.1,1.9-4.5,3.3-7.1,4.3c-2.6,1-5.4,1.5-8.2,1.6
			c-2.9,0.1-5.7-0.5-8.4-1.6c-2.8-1-5.3-2.6-7.3-4.8c-2-2.1-3.6-4.5-4.6-7.1c-1-2.6-1.5-5.4-1.5-8.3c0.1-2.9,0.8-5.8,2.1-8.5
			c0.7-1.5,1.8-2.9,3.1-4.4c1.3-1.5,2.8-2.7,4.4-3.7c1.6-1,3.3-1.7,5.1-2c1.8-0.4,3.6-0.2,5.3,0.4c-0.3-2-0.4-3.8-0.3-5.3
			c0.1-2.7,0.7-5.5,1.8-8.2c1.1-2.8,2.6-5.3,4.4-7.5c1.8-2.2,4-4.1,6.5-5.6c2.5-1.5,5.2-2.2,8.2-2.2c3.2-0.1,6,0.8,8.2,2.7
			c2.2,1.9,3.7,4.1,4.4,6.7c0.7,2.6,0.7,5.2-0.2,7.9c-0.9,2.7-2.8,4.9-5.7,6.6c-1.2,0.6-2.5,1.2-4.2,1.7c-1.6,0.5-3.2,0.7-4.8,0.6
			c2.6,1.4,4.5,3.3,5.7,5.8c1.2,2.5,1.8,5.2,2,8.2c0.2,2.9-0.1,5.8-0.8,8.7C752.6,89.2,751.7,91.8,750.7,94z M725.5,89.1
			c-0.5,2.4-0.4,4.4,0.5,5.9c0.8,1.5,2,2.6,3.5,3.3c1.5,0.7,3.1,0.9,5,0.8c1.9-0.2,3.6-0.7,5.1-1.6c1.5-0.9,2.7-2.1,3.6-3.8
			c0.9-1.6,1.1-3.5,0.7-5.7c-0.5-2.4-1.8-4.4-3.9-6c-2.1-1.6-4-3.3-5.8-4.9c-0.5,1.2-1.2,2.2-2,3.1c-0.8,0.9-1.7,1.9-2.6,2.7
			c-0.9,0.9-1.7,1.8-2.4,2.8C726.4,86.7,725.9,87.8,725.5,89.1z M748.6,51.4c1.4,0.5,2.5,0.5,3.4,0c0.9-0.5,1.5-1.3,1.7-2.2
			c0.3-0.9,0.2-1.9-0.2-2.9c-0.4-1-1.3-1.6-2.5-2c-2.4-0.6-4.7-0.4-6.8,0.5c-2.1,1-3.7,2.5-4.9,4.5c-1,1.7-1.7,3.5-1.9,5.5
			c-0.2,2,0.3,3.9,1.4,5.7c0.6,0.9,1.3,1.5,2,1.7c0.7,0.2,1.4,0.3,2.1,0.3c-1.6-0.9-2.4-2.1-2.6-3.6c-0.2-1.5,0.1-2.9,0.8-4.2
			c0.7-1.3,1.7-2.4,3.1-3.1C745.6,50.9,747.1,50.8,748.6,51.4z"/>
	</g>
	<g>
		<g>
			<path class="st1" d="M189.5,70.4c-0.2-1.1-0.8-2.1-1.9-2.7c-1-0.7-2.1-0.8-3.3-0.2c-0.7,0.3-1.3,0.8-1.6,1.4
				c-0.4,0.6-0.8,1.2-1.2,1.9c-2.8,4.7-6,9.2-9.5,13.6c-3.5,4.4-7.6,8.1-12.3,11c-1.9,1.1-4,2.2-6.5,3.1c-2.4,0.9-4.8,1.4-7,1.5
				c-2.2,0.1-4.2-0.5-6-1.7c-1.8-1.2-2.9-3.4-3.4-6.5c-0.3-1.6-0.4-3.4-0.2-5.5c3.2,0,6.6-0.1,10.1-0.2c3.5-0.2,6.9-0.6,10.2-1.4
				c3.3-0.8,6.3-2,9.1-3.8c2.8-1.8,5.1-4.4,6.9-7.8c2-3.6,2.9-7.3,2.6-10.9c-0.2-3.6-1.4-7.3-3.4-10.9c-2.8-4.9-6.3-8.1-10.4-9.6
				c-4.1-1.5-9-1.9-14.6-1.2c-3.6,0.5-6.9,1.7-9.7,3.6s-5.3,4.2-7.5,6.9c-2.2,2.7-4,5.7-5.5,8.9c-1.8,3.8-3.1,7.5-3.9,11.3
				c-2.3,3.8-4.6,7.6-7.1,11.3c-1.9,2.8-4.1,5.9-6.8,9.2c-2.6,3.3-5.6,6-9,8.1c-0.3-1.2-0.3-2.8,0.1-4.7c0.4-1.9,0.9-3.8,1.5-5.8
				c0.6-2,1.3-4,2-5.9c0.7-1.9,1.3-3.5,1.9-4.8c1.5-3.8,3-7.6,4.5-11.4c1.6-3.7,3.2-7.4,5-11.1c2.6-5.6,5.3-11.2,8.1-16.7
				c2.8-5.5,5.7-11.1,8.7-16.7c1.3-2.5,1.6-4.8,0.7-6.9c-0.9-2.1-2.3-3.7-4.2-4.8c-1.9-1.1-4.1-1.5-6.4-1.2c-2.3,0.3-4.3,1.6-5.8,4
				c-2.8,4.2-5.4,8.6-7.7,13.2c-2.3,4.7-4.5,9.4-6.6,14c-2.6,5.8-4.9,11.7-7,17.5c-2.1,5.9-3.9,11.9-5.5,18.2
				c-0.5,2.1-1,4.7-1.3,7.9c-0.4,3.2-0.4,6.3,0,9.4c0.4,3.1,1.3,5.8,2.7,8.3c1.5,2.4,3.8,4,7,4.8c2.1,0.4,4.4-0.2,6.9-1.9
				c2.5-1.7,5-3.9,7.4-6.5c2.4-2.7,4.7-5.4,6.8-8.3l3.5-4.3c0.8,5.3,3.1,10.1,7.1,14.5c3.7,4.1,7.9,6.3,12.6,6.6
				c4.7,0.4,9.5-0.4,14.3-2.3c5.6-2.2,10.8-5.2,15.6-9c4.8-3.8,9-8.2,12.6-12.9c0.5-0.7,1.2-1.6,2-2.6c0.8-1,1.6-2.1,2.4-3.2
				c0.8-1.1,1.5-2.3,2-3.4C189.4,72.3,189.6,71.3,189.5,70.4z M141.1,71.5c1.1-2.4,2.4-4.7,3.7-7c0.6-1,1.6-2.5,2.8-4.5
				c1.2-2,2.7-3.8,4.3-5.6c1.6-1.8,3.3-3.2,5-4.3c1.7-1.1,3.4-1.2,4.9-0.4c1.1,0.6,1.5,1.8,1.2,3.5c-0.4,1.7-1,3.5-1.9,5.5
				c-0.9,1.9-2,3.8-3.1,5.5c-1.1,1.8-2,3-2.5,3.6c-2.3,2.7-4.9,5-7.8,7c-2.9,2-6.1,3.4-9.5,4.2C138.9,76.3,139.9,73.9,141.1,71.5z"
				/>
		</g>
	</g>
	<g>
		<path class="st1" d="M612.1,122.1h5.7c4,0,7,2.7,7,6.7c0,4.1-2.9,6.2-6.4,6.2h-6.3V122.1z M617.1,133.4c2.7,0,3.8-2.6,3.8-5.1
			c0-2.5-1.4-4.6-3.9-4.6h-1.2v9.7H617.1z"/>
		<path class="st1" d="M627.5,135.1v-13h8.2v1.8h-4.6v3.7h4.4v1.8h-4.4v4h4.8v1.8H627.5z"/>
		<path class="st1" d="M655,125.8c-1-1.3-1.8-2.6-3.8-2.6c-2.7,0-3.4,2.9-3.4,5.2c0,2.3,0.7,5.2,3.4,5.2c2.3,0,3.3-1.2,4.1-2.8
			l1.5,1.1c-1.2,2.5-3.2,3.5-6,3.5c-4,0-7-2.8-7-6.8c0-4,2.9-6.8,7-6.8c2.9,0,4.2,0.9,5.7,3L655,125.8z"/>
		<path class="st1" d="M665.5,121.7c3.9,0,6.9,3,6.9,6.8c0,3.8-3,6.8-6.9,6.8s-6.9-3-6.9-6.8C658.6,124.8,661.7,121.7,665.5,121.7z
			 M665.5,133.9c2.5,0,2.9-3.3,2.9-5.3c0-2-0.4-5.3-2.9-5.3c-2.5,0-2.9,3.3-2.9,5.3C662.6,130.6,663,133.9,665.5,133.9z"/>
		<path class="st1" d="M675.1,122.1h3.6v11.2h4.8v1.8h-8.4V122.1z"/>
		<path class="st1" d="M691.5,121.7c3.9,0,6.9,3,6.9,6.8c0,3.8-3,6.8-6.9,6.8s-6.9-3-6.9-6.8C684.6,124.8,687.6,121.7,691.5,121.7z
			 M691.5,133.9c2.5,0,2.9-3.3,2.9-5.3c0-2-0.4-5.3-2.9-5.3c-2.5,0-2.9,3.3-2.9,5.3C688.5,130.6,689,133.9,691.5,133.9z"/>
		<path class="st1" d="M700.7,122.1h3.7l2.9,6.8l2.8-6.8h3.6v13h-3.6v-8.2H710l-3.4,8.2h-0.4l-3.4-8.1h0v8.1h-1.9V122.1z"/>
		<path class="st1" d="M723,122.1c2.2,0.1,4.4,1,4.4,3.5c0,1.5-1.1,2.7-2.7,2.9v0c1.7,0.4,3.2,1.5,3.2,3.3c0,2.6-2.7,3.2-4.2,3.2h-7
			v-13H723z M720.4,127.6h1.4c1.1,0,1.9-0.6,1.9-1.9c0-1.3-0.8-2-2.1-2h-1.2V127.6z M720.4,133.4h1.5c1.1,0,2-0.6,2-2
			c0-1.3-1-2.2-2.3-2.2h-1.3V133.4z"/>
		<path class="st1" d="M730.2,122.1h3.6v13h-3.6V122.1z"/>
		<path class="st1" d="M735.8,135.1l4.5-13h3.6l4.8,13h-4l-1.4-3.8h-4.4l-1.3,3.8H735.8z M739.5,129.5h3.2L741,125h0L739.5,129.5z"
			/>
	</g>
</g>
<g>
	<path class="st2" d="M230.6,97.6c0,0-10.8,9.3-22.8,17.2s-23.3,13.1-23.3,13.1s-5.4,2.9-8.3-2.1c-3-5.1,2.6-8.5,2.6-8.5
		s4.2-2.7,7-4.2c2.9-1.4,11.5-6.3,19.7-12.5c13.7-10.4,16.5-12.9,16.5-12.9S204.9,65,200.8,52c-9.7-31.2-8.7-44.9-8.7-44.9
		s2.6-5.7,10.2-5c7.7,0.7,10.9,9.3,10.9,9.3s1.7,21.3,3.8,29.8c4.8,19.2,17.7,33.9,17.7,33.9s7.4-6.7,13.7-18.1s8.6-19.5,8.6-19.5
		s3.5-5.1,8.8-2.4c1.5,0.8,2.6,4.5,2.6,4.5s1.4,8-9.3,24C247.8,80.9,243,86.1,243,86.1s22,22.1,58.7,37.4
		c5.5,2.3,44.1,23,122.7,25.9c118.6-3.2,177.6-19.2,177.6-19.2s-23.7,11.3-46.5,17.3c-27.5,7.1-80.2,14.3-132.7,13.4
		c-56.6-1-108.3-14.1-125.3-20.8C255.6,123.7,230.6,97.6,230.6,97.6z"/>
	<g>
		<path class="st3" d="M20.2,42.3c1.3,1.5,2.4,3.1,3.3,4.8c0.9,1.7,1,3.6,0.4,5.7c-0.4,1.3-1,2.5-1.9,3.4c-0.9,1-1.9,1.7-3,2.3
			c-1.1,0.6-2.3,0.9-3.6,0.9c-1.3,0.1-2.5-0.2-3.7-0.7c-3.4-1.3-5.6-3.7-6.7-7.1c-1.1-3.4-1.4-7.1-1-11.2c0.4-4,1.4-8,3-11.9
			c1.6-3.9,3.4-7.1,5.4-9.6c3.6-4.2,7.6-7,12.2-8.5c4.5-1.5,9.3-2.2,14.2-2.1c4.9,0.1,9.8,0.7,14.8,1.8c4.9,1.1,9.6,2.1,13.8,3
			c1.9,0.4,4,0.8,6.2,1.2c2.2,0.4,4.4,0.7,6.5,0.8c2.1,0.2,4.3,0.1,6.4-0.2c2.1-0.3,4.1-1,6-2.1c1.4-0.8,2.9-1.5,4.4-1.9
			c1.5-0.5,3.1-0.4,4.8,0.1c2.1,0.7,3.8,2.1,5,4.1c1.2,2,1.6,4.1,1.1,6.3c-0.5,2.1-1.6,3.9-3.2,5.1c-1.6,1.3-3.5,2.2-5.7,2.7
			c-2.1,0.5-4.3,0.8-6.6,0.8c-2.2,0-4.2-0.2-6-0.5c-2.8-0.4-5.5-1.1-8.1-2c-2.7-0.9-5.3-1.9-7.9-3c-2.6-1.1-5.2-2.2-7.8-3.3
			c-2.6-1.1-5.2-2.1-7.7-3.1c-2.2-0.8-4.5-1.6-6.7-2.3c-2.2-0.7-4.5-1.2-6.7-1.6c-2.2-0.4-4.5-0.4-6.8-0.2c-2.3,0.2-4.6,0.8-7,1.7
			c-3,1.2-5.4,2.9-7.2,4.9c-1.8,2-3.1,4.3-3.8,6.7c-0.7,2.4-0.8,4.9-0.2,7.5C16.8,37.5,18.1,40,20.2,42.3z M20.6,107.5
			c0.5-5.8,1.2-11.6,2.1-17.4c0.9-5.8,2.1-11.6,3.7-17.4c-0.5,0.2-1.1,0.4-1.7,0.7c-0.6,0.3-1.2,0.3-1.7,0.1c-0.8-0.1-1.5-0.5-2-1.1
			c-0.5-0.6-0.8-1.3-0.9-2c-0.1-0.7,0-1.4,0.3-2.1c0.3-0.7,0.9-1.2,1.7-1.6c2.1-1.1,4.3-1.9,6.6-2.3l3.2-10.7
			c1.2-4,2.5-8.2,3.7-12.5c1.3-4.4,3.1-8.4,5.4-11.9c0.9-1.4,2.1-2.7,3.6-3.7c1.5-1,3-1.7,4.6-2c1.6-0.3,3.1-0.2,4.7,0.4
			c1.5,0.6,2.9,1.8,4,3.6c1,1.6,1.4,3.3,1.1,5c-0.3,1.7-0.8,3.5-1.6,5.2c-0.8,1.7-1.8,3.4-2.9,5c-1.1,1.6-2,3.2-2.8,4.6
			c-1.3,2.4-2.6,4.9-3.7,7.4c-1.2,2.5-2.3,5-3.4,7.6c2-0.2,4-0.6,5.9-1.1c1.9-0.5,3.7-1.2,5.6-2.1c1.7-0.9,3.5-1.7,5.3-2.4
			c1.8-0.7,3.7-0.7,5.7,0.2c1.3,0.5,2.4,1.3,3.4,2.3c0.9,1,1.6,2.2,1.9,3.4c0.4,1.3,0.5,2.6,0.3,3.9c-0.2,1.3-0.6,2.6-1.5,3.8
			c-1.4,2-3.3,3.4-5.7,4.1c-2.3,0.7-4.8,0.9-7.4,0.8c-2.6-0.2-5.2-0.6-7.7-1.3c-2.6-0.7-4.8-1.4-6.7-2l-2.9-0.9
			c-2.3,5.5-4.4,10.5-6.1,15.1c-1.7,4.5-3.3,9.1-4.7,13.5c-0.5,1.6-0.9,3.4-1.1,5.3c-0.2,1.9-0.7,3.5-1.5,5
			c-0.5,0.9-1.1,1.5-1.9,1.7c-0.8,0.2-1.5,0.2-2.3-0.2c-0.8-0.3-1.4-0.8-1.9-1.5C20.7,109.2,20.5,108.4,20.6,107.5z"/>
	</g>
	<g>
		<path class="st3" d="M298.5,74.5c-1.2,2.3-2.2,4.6-3.2,6.8c-1,2.3-2,4.6-2.9,7c-0.3,0.8-0.8,1.9-1.3,3.1c-0.6,1.2-1.1,2.4-1.6,3.7
			c-0.5,1.3-0.8,2.4-1,3.5c-0.2,1.1-0.1,1.9,0.5,2.3c0.8,0.7,2.2,0.4,4.1-0.9c1.9-1.4,3.8-3.1,5.8-5.1c2-2,3.8-4.1,5.5-6
			c1.7-2,2.7-3.2,3.1-3.8c1.5-1.9,2.9-3.8,4.2-5.7c1.3-1.9,2.6-3.8,3.8-5.8c0.4-0.6,0.9-1.4,1.4-2.3c0.5-0.9,1.2-1.6,1.9-2.3
			c0.7-0.6,1.5-1,2.3-1.1c0.8-0.1,1.6,0.4,2.6,1.4c1.2,1.4,1.3,2.8,0.5,4.2c-0.8,1.5-1.6,2.8-2.4,3.9c-3.2,4.8-6.6,9.2-10,13
			c-3.5,3.9-7,7.5-10.7,10.8c-1.6,1.5-3.3,2.9-5.3,4.4c-1.9,1.5-4.1,2.3-6.4,2.5c-1.8,0.2-3.4,0-4.7-0.6c-1.4-0.6-2.6-1.5-3.6-2.6
			c-1-1.1-1.9-2.4-2.7-3.8c-0.7-1.4-1.3-2.9-1.7-4.3c-0.7-2.2-1-4.6-0.8-7.2c0.2-2.6,0.7-5.2,1.3-7.8c0.7-2.6,1.5-5.1,2.5-7.5
			c1-2.5,1.9-4.7,2.7-6.8c1.7-4.2,3.1-7.6,4.2-10.3c1.1-2.7,2-4.8,2.7-6.4c0.7-1.6,1.3-2.7,1.8-3.5c0.5-0.8,1-1.4,1.6-2
			c1.8-1.6,3.7-2.3,5.8-2.2c2.1,0.1,3.9,0.8,5.6,2c1.6,1.2,2.8,2.8,3.5,4.8c0.7,2,0.5,4.1-0.5,6.3L298.5,74.5z M301,24.1
			c0-2.8,1-5.3,3.1-7.3s4.4-3.1,7.1-3.1c2.8,0,5.3,1,7.3,3.1s3.1,4.5,3.1,7.3c0,2.7-1,5.1-3.1,7.1s-4.5,3.1-7.3,3.1
			c-2.7,0-5.1-1-7.1-3.1S301,26.8,301,24.1z"/>
		<path class="st3" d="M332.6,92.9c0.5,3.1,1.7,5.3,3.5,6.5c1.8,1.2,3.8,1.8,6,1.7c2.2-0.1,4.6-0.5,7.1-1.5c2.5-0.9,4.6-2,6.5-3.1
			c4.7-2.9,8.8-6.6,12.4-11.1c3.6-4.4,6.8-9,9.6-13.7c0.4-0.6,0.8-1.3,1.2-1.9c0.4-0.6,0.9-1.1,1.6-1.4c1.2-0.5,2.2-0.4,3.3,0.2
			c1,0.7,1.7,1.6,1.9,2.7c0.1,0.9-0.1,2-0.7,3.1c-0.6,1.2-1.3,2.3-2,3.5c-0.8,1.2-1.6,2.2-2.4,3.2c-0.8,1-1.5,1.9-2,2.6
			c-3.7,4.8-7.9,9.2-12.7,13c-4.8,3.9-10,6.9-15.7,9.1c-4.9,1.9-9.7,2.6-14.4,2.3c-4.7-0.4-8.9-2.6-12.7-6.7
			c-4-4.4-6.4-9.3-7.1-14.6s-0.4-10.8,1-16.5c0.8-3.2,2-6.5,3.5-9.7c1.5-3.2,3.4-6.2,5.6-8.9c2.2-2.7,4.7-5,7.5-6.9
			c2.8-1.9,6.1-3.1,9.7-3.6c5.7-0.7,10.5-0.3,14.7,1.2c4.1,1.5,7.6,4.7,10.4,9.7c2.1,3.7,3.2,7.3,3.5,11c0.2,3.7-0.7,7.3-2.7,11
			c-1.8,3.5-4.1,6.1-6.9,7.8c-2.8,1.8-5.9,3.1-9.2,3.8s-6.7,1.3-10.3,1.4c-3.6,0.2-7,0.2-10.2,0.2C332.2,89.5,332.3,91.3,332.6,92.9
			z M351.3,68.7c0.5-0.6,1.4-1.8,2.5-3.6c1.2-1.8,2.2-3.6,3.1-5.6c0.9-1.9,1.6-3.8,2-5.5c0.4-1.7,0-2.9-1.2-3.5
			c-1.6-0.8-3.2-0.7-4.9,0.4c-1.7,1.1-3.4,2.5-5,4.3c-1.6,1.8-3.1,3.7-4.3,5.7c-1.3,2-2.2,3.5-2.8,4.6c-1.4,2.3-2.6,4.7-3.8,7.1
			c-1.2,2.4-2.1,4.9-3,7.5c3.5-0.8,6.6-2.3,9.6-4.2C346.3,73.7,349,71.4,351.3,68.7z"/>
		<path class="st3" d="M408.6,96.1c-1.4,2.5-3.1,4.7-5.3,6.6c-2.1,1.9-4.5,3.3-7.1,4.3c-2.6,1-5.4,1.5-8.2,1.6
			c-2.9,0.1-5.7-0.5-8.4-1.6c-2.8-1-5.3-2.6-7.3-4.8c-2-2.1-3.6-4.5-4.6-7.1c-1-2.6-1.5-5.4-1.5-8.3c0.1-2.9,0.8-5.8,2.1-8.5
			c0.7-1.5,1.8-2.9,3.1-4.4c1.3-1.5,2.8-2.7,4.4-3.7c1.6-1,3.3-1.7,5.1-2c1.8-0.4,3.6-0.2,5.3,0.4c-0.3-2-0.4-3.8-0.3-5.3
			c0.1-2.7,0.7-5.5,1.8-8.2c1.1-2.8,2.6-5.3,4.4-7.5c1.8-2.2,4-4.1,6.5-5.6c2.5-1.5,5.2-2.2,8.2-2.2c3.2-0.1,6,0.8,8.2,2.7
			c2.2,1.9,3.7,4.1,4.4,6.7c0.7,2.6,0.7,5.2-0.2,7.9c-0.9,2.7-2.8,4.9-5.7,6.6c-1.2,0.6-2.5,1.2-4.2,1.7c-1.6,0.5-3.2,0.7-4.8,0.6
			c2.6,1.4,4.5,3.3,5.7,5.8c1.2,2.5,1.8,5.2,2,8.2c0.2,2.9-0.1,5.8-0.8,8.7C410.5,91.4,409.6,93.9,408.6,96.1z M383.5,91.3
			c-0.5,2.4-0.4,4.4,0.5,5.9c0.8,1.5,2,2.6,3.5,3.3c1.5,0.7,3.1,0.9,5,0.8c1.9-0.2,3.6-0.7,5.1-1.6c1.5-0.9,2.7-2.1,3.6-3.8
			c0.9-1.6,1.1-3.5,0.7-5.7c-0.5-2.4-1.8-4.4-3.9-6c-2.1-1.6-4-3.3-5.8-4.9c-0.5,1.2-1.2,2.2-2,3.1c-0.8,0.9-1.7,1.9-2.6,2.7
			c-0.9,0.9-1.7,1.8-2.4,2.8C384.3,88.9,383.8,90,383.5,91.3z M406.5,53.6c1.4,0.5,2.5,0.5,3.4,0c0.9-0.5,1.5-1.3,1.7-2.2
			c0.3-0.9,0.2-1.9-0.2-2.9c-0.4-1-1.3-1.6-2.5-2c-2.4-0.6-4.7-0.4-6.8,0.5c-2.1,1-3.7,2.5-4.9,4.5c-1,1.7-1.7,3.5-1.9,5.5
			c-0.2,2,0.3,3.9,1.4,5.7c0.6,0.9,1.3,1.5,2,1.7c0.7,0.2,1.4,0.3,2.1,0.3c-1.6-0.9-2.4-2.1-2.6-3.6c-0.2-1.5,0.1-2.9,0.8-4.2
			c0.7-1.3,1.7-2.4,3.1-3.1C403.5,53.1,405,53,406.5,53.6z"/>
		<path class="st3" d="M480.2,83.6c-1.6,3.9-3.6,7.5-6,10.9c-2.5,3.4-5.3,6.3-8.6,8.6c-3.2,2.4-6.8,4-10.8,5
			c-3.9,1-8.1,1.1-12.5,0.2c-2.4-0.5-4.6-1.4-6.6-2.6c-2-1.2-3.6-2.7-4.7-4.5c-0.4,0.8-0.8,1.7-1.2,2.5c-0.4,0.8-0.7,1.7-1,2.5
			c-1.8,4-3.5,8.1-5.2,12.4c-1.7,4.3-2.8,8.6-3.3,13c-0.1,1-0.5,1.9-1.2,2.7c-0.7,0.7-1.4,1.2-2.2,1.3c-0.8,0.2-1.6,0-2.4-0.4
			c-0.8-0.4-1.3-1.3-1.6-2.5c-0.8-3.1-1.2-6.6-1-10.4s0.6-7.7,1.3-11.9c0.7-4.1,1.7-8.3,2.9-12.6c1.2-4.2,2.5-8.4,3.9-12.4
			c1.4-4,2.8-7.8,4.2-11.4c1.4-3.6,2.6-6.7,3.7-9.4c0.8-2.3,1.7-4.6,2.7-6.8c0.9-2.2,1.9-4.3,2.8-6.4c0.6-1.5,1.3-2.9,2-4.2
			c0.7-1.4,1.8-2.5,3.3-3.3c1.7-0.9,3.4-1.3,5.3-1.1c1.8,0.2,3.4,0.9,4.8,2c1.4,1.1,2.4,2.5,3.1,4.1c0.7,1.6,0.8,3.4,0.4,5.3
			c1.4-1.4,2.8-2.7,4.3-4.1c1.5-1.4,3.1-2.5,4.7-3.5c1.6-0.9,3.3-1.6,5-2c1.7-0.4,3.5-0.4,5.3,0c3.8,0.9,6.6,2.9,8.4,5.9
			c1.8,3,3,6.4,3.5,10.2c0.5,3.8,0.4,7.8-0.3,11.9C482.5,76.8,481.5,80.4,480.2,83.6z M463.5,75.9c1.5-3.1,2.8-6.4,4-9.9
			c1.2-3.5,1.7-6.9,1.5-10.4c-0.2-2.1-0.8-3.3-1.7-3.7c-0.9-0.4-2-0.3-3.2,0.3c-1.2,0.6-2.4,1.4-3.7,2.5c-1.3,1.1-2.3,2-3,2.7
			c-4.7,4.7-8.8,10.2-12.2,16.3c-3.5,6.2-6.3,12.2-8.5,18.2c-0.6,3.6,0,6.1,1.8,7.7c1.8,1.6,4.3,1.5,7.3-0.2c2.2-1.2,4.2-2.6,6-4.5
			c1.8-1.8,3.4-3.8,4.8-6c1.4-2.1,2.7-4.4,3.8-6.7C461.5,80.2,462.6,78,463.5,75.9z"/>
		<path class="st3" d="M521.9,55.5c-2.2,3.5-4.4,6.9-6.6,10.4c-2.2,3.5-4.3,7-6.4,10.6c-0.2,0.4-0.7,1.3-1.4,2.6
			c-0.7,1.3-1.6,2.8-2.5,4.6c-0.9,1.7-1.9,3.6-2.8,5.5c-0.9,1.9-1.8,3.7-2.5,5.4c-0.7,1.7-1.3,3.1-1.6,4.2c-0.3,1.2-0.3,1.8,0.2,2
			c0.6,0.3,1.3,0.3,2.1,0.1c0.8-0.3,1.5-0.7,2.3-1.2c0.7-0.5,1.4-1.1,2-1.8c0.6-0.7,1.1-1.2,1.4-1.5c2.4-2.5,4.8-5.5,7.2-8.9
			c2.4-3.4,4.7-7,6.9-10.7c2.2-3.7,4.2-7.4,6.1-11.1c1.9-3.7,3.5-6.9,4.9-9.7c1.2-2.3,2.3-4.6,3.5-6.9c1.2-2.3,2.6-4.1,4.4-5.5
			c1.9-1.4,3.8-1.9,5.9-1.6c2,0.3,3.8,1,5.3,2.3c1.5,1.3,2.5,2.9,3.1,4.8c0.6,1.9,0.3,4-0.7,6c-1.6,3.1-3.1,6.3-4.6,9.5
			c-1.5,3.2-3,6.4-4.5,9.7c-1.9,4.2-3.5,7.8-4.9,10.8c-1.4,3-2.5,5.5-3.3,7.5c-0.8,2-1.5,3.7-1.9,4.9c-0.4,1.3-0.6,2.4-0.5,3.3
			c1.6-0.1,3.1-0.8,4.6-2.1c1.5-1.3,3-2.8,4.3-4.6c1.4-1.7,2.6-3.5,3.7-5.3c1.1-1.8,2-3.2,2.7-4.4c1.2-1.8,2.3-3.6,3.4-5.4
			c1.1-1.8,2.2-3.6,3.4-5.4c0.3-0.6,0.7-1.3,1.2-2.1c0.5-0.8,1-1.5,1.6-2.1c0.6-0.6,1.2-1,2-1.3c0.7-0.2,1.6-0.1,2.5,0.5
			c1.5,0.8,1.9,2.3,1.3,4.2c-0.6,2-1.5,4.1-2.8,6.3c-1.3,2.2-2.7,4.3-4.3,6.3c-1.6,2-2.7,3.4-3.3,4.1c-1.2,1.6-2.5,3.4-3.9,5.5
			c-1.5,2.1-3.1,4.1-4.8,6s-3.6,3.5-5.6,4.9c-2,1.4-4.1,2.1-6.3,2.4c-2,0.2-3.8-0.3-5.3-1.4c-1.6-1.2-2.9-2.6-3.8-4.5
			c-1-1.8-1.8-3.8-2.3-5.9c-0.5-2.1-0.7-4-0.5-5.7l0.5-3.8l-4.9,7.1c-1.2,1.8-2.5,3.6-3.9,5.4c-1.5,1.8-3.1,3.5-4.9,4.9
			c-1.8,1.5-3.7,2.6-5.8,3.4c-2.1,0.8-4.3,0.9-6.8,0.4c-3.1-0.7-5.4-2.2-6.8-4.5c-1.4-2.2-2.1-4.8-2.3-7.6c-0.2-2.8,0.1-5.7,0.7-8.6
			c0.6-2.9,1.3-5.3,1.9-7.3c1.8-5.3,3.9-10.6,6.4-15.7c2.5-5.1,5.3-10,8.6-14.6c0.8-1.4,1.8-2.7,2.7-4.1c1-1.4,2.2-2.5,3.7-3.3
			c2.2-1.3,4.6-1.5,7.1-0.7c2.5,0.8,4.3,2.3,5.5,4.6c0.7,1.5,1,3,0.9,4.6C523.2,52.7,522.8,54.1,521.9,55.5z"/>
		<path class="st3" d="M587.1,80.4c0.9-2.8,2-5.6,3.1-8.3c1.2-2.7,2.2-5.4,3.3-8.2c0.3-0.9,0.8-2.1,1.3-3.5c0.6-1.4,1.1-2.8,1.5-4.2
			c0.4-1.4,0.7-2.7,0.8-3.8c0.1-1.2-0.1-2-0.5-2.5c-0.6-0.7-1.7-0.6-3.1,0.5c-1.5,1-3.1,2.6-4.9,4.6c-1.8,2-3.7,4.4-5.7,7
			c-2,2.6-3.8,5.2-5.5,7.6c-1.7,2.5-3.1,4.6-4.3,6.5c-1.2,1.9-1.9,3-2.1,3.5c-1.8,3-3.6,6.1-5.5,9.3c-1.9,3.2-3.4,6.5-4.4,9.8
			c-0.3,1-0.6,2.2-0.9,3.5c-0.3,1.3-0.7,2.5-1.2,3.5c-0.5,1-1.1,1.7-1.9,2.2c-0.8,0.5-1.8,0.4-2.9-0.2c-0.9-0.4-1.6-1.2-1.9-2.3
			c-0.3-1.1-0.5-2.3-0.5-3.7c0-1.4,0.1-2.7,0.2-3.9c0.2-1.3,0.2-2.3,0.2-3c0.6-7.5,1.7-14.9,3.3-22.1c0.7-3.6,1.5-7.2,2.2-10.8
			c0.7-3.7,1.7-7.2,2.8-10.5c0.6-1.9,1.8-3.6,3.6-5.2c1.8-1.6,3.7-2.5,5.8-2.7c1.7-0.1,3.2,0.2,4.6,0.9c1.4,0.7,2.5,1.6,3.4,2.9
			c0.8,1.3,1.4,2.7,1.6,4.2c0.2,1.6-0.1,3.1-0.8,4.7c1.2-1.6,2.5-3.2,4.1-4.9c1.6-1.7,3.2-3.3,5-4.9c1-0.9,2.4-1.8,3.9-2.6
			c1.6-0.8,3.2-1.4,4.9-1.8c1.7-0.4,3.5-0.6,5.2-0.6c1.7,0,3.3,0.3,4.6,0.9c2.4,1.3,4.2,2.8,5.3,4.6c1.1,1.8,2.2,3.8,3.2,5.9
			c7.1-8.4,14.2-12.1,21.2-11.3c1.3,0.2,2.4,0.7,3.4,1.5c1,0.8,1.9,1.8,2.7,2.9c0.8,1.2,1.4,2.4,1.9,3.6c0.5,1.3,0.8,2.4,1,3.3
			c0.6,3.7,0.5,7.5-0.4,11.5c-0.9,4-2.3,7.9-4.1,11.7c-1.8,3.8-4,7.3-6.4,10.6c-2.4,3.3-4.9,6-7.4,8.2c-0.6,0.4-1.3,1.2-2.1,2.2
			c-0.8,1-1.4,2-1.7,2.7c-0.4,0.8-0.3,1.3,0.2,1.5c0.5,0.2,1.7-0.3,3.7-1.6c2-1.3,4.2-3,6.5-5.3c2.4-2.3,4.7-4.8,6.9-7.5
			c2.3-2.7,4.3-5.3,6.1-7.9c1.8-2.6,3.3-4.8,4.5-6.6c0.6-1,1.3-2.1,2.1-3.2c0.8-1.1,1.9-1.5,3.4-1.2c1,0.2,1.8,0.6,2.2,1.2
			c0.4,0.6,0.6,1.2,0.5,2c-0.1,0.7-0.2,1.5-0.5,2.3c-0.3,0.8-0.6,1.5-0.9,2.1c-2.1,3.4-4.4,6.5-7,9.6c-2.6,3-5.2,6-7.9,8.9
			c-1.4,1.5-2.8,3-4.4,4.5c-1.6,1.5-3.2,2.9-4.9,4.2c-1.7,1.3-3.4,2.5-5.3,3.5c-1.8,1-3.7,1.7-5.7,2c-2.3,0.4-4.2,0.2-5.6-0.8
			s-2.5-2.2-3.1-3.8c-0.7-1.6-1.1-3.4-1.2-5.4c-0.1-2,0-3.8,0.3-5.5c0.8-5,2.4-9.6,4.6-13.7c2.2-4.1,4.7-8.3,7.5-12.6
			c0.4-0.6,1.1-1.7,2-3.3c0.9-1.6,1.8-3.2,2.6-4.9c0.8-1.7,1.3-3.4,1.6-5c0.3-1.6,0.1-2.9-0.8-3.7c-0.4-0.4-1.3-0.1-2.7,0.9
			c-1.4,1-2.9,2.2-4.5,3.6c-1.6,1.4-3,2.8-4.3,4.1c-1.3,1.3-2.1,2.1-2.3,2.4c-2.8,3.1-5.5,6.4-8,9.7c-2.5,3.4-5,6.7-7.4,10
			c-2,2.8-3.9,5.7-5.7,8.7c-1.8,3-3.5,6-4.9,9c-0.5,0.8-1,1.9-1.3,3.2c-0.4,1.3-1,2.3-1.8,2.9c-0.8,0.8-1.8,1.1-3,0.9
			c-1.2-0.3-1.9-0.9-2.4-1.8c-0.4-1-0.5-2.6-0.2-4.8c0.3-2.1,0.8-4.4,1.4-6.8c0.6-2.4,1.3-4.6,2-6.7
			C586.3,82.9,586.8,81.4,587.1,80.4z"/>
		<path class="st3" d="M717.9,56.3c-1.8,3.2-3.5,6.5-5.3,9.7c-1.7,3.2-3.3,6.5-4.8,9.8c-0.8,2-1.6,4-2.4,6s-1.5,4.1-2.1,6.2
			c-0.5,1.8-1.2,3.8-1.9,6.2c-0.7,2.4-0.8,4.5-0.3,6.5c1.6-0.6,3.1-1.6,4.6-3.1c1.5-1.4,2.9-3,4.2-4.7c1.3-1.7,2.5-3.5,3.7-5.3
			c1.2-1.8,2.1-3.4,3-4.6c1.3-1.9,2.5-3.8,3.7-5.7c1.2-1.9,2.4-3.9,3.5-5.9c0.4-0.7,1-1.4,1.8-2c0.8-0.6,1.6-1,2.4-1.2
			s1.5,0,2.1,0.4c0.6,0.4,1,1.3,1.1,2.5c0.2,1.4-0.2,2.8-1.2,4.3c-1,1.5-1.8,2.8-2.4,3.8c-1.4,2.1-3.1,4.8-5.2,8.1
			c-2.1,3.3-4.4,6.5-6.9,9.5c-2.5,3-5.1,5.7-7.8,7.9c-2.7,2.2-5.2,3.4-7.6,3.5c-1.6,0.1-3-0.3-4.4-1.3c-1.4-1-2.6-2.3-3.8-3.8
			c-1.2-1.6-2.1-3.3-3-5.1c-0.8-1.8-1.5-3.6-1.9-5.4l-2.2,3.5c-1.5,2.2-3.2,4.4-5.1,6.7c-1.9,2.3-4.2,3.9-6.8,4.9
			c-2.3,0.9-4.5,1.2-6.6,0.6c-2.1-0.5-4-1.5-5.8-2.9c-1.8-1.4-3.4-3.1-4.7-5.1c-1.4-2-2.5-3.9-3.3-5.8c-1.9-4.4-2.7-8.7-2.6-13
			s1-8.6,2.4-13c1.2-3.6,2.6-6.9,4.5-10.1c1.8-3.2,4.1-6.1,6.7-8.9c2-2.1,4.3-3.9,6.9-5.4c2.6-1.5,5.3-2.6,8.2-3.2
			c2.8-0.6,5.7-0.8,8.7-0.5c3,0.3,5.8,1.3,8.6,2.8c1,0.6,2,1.5,2.7,2.5c0.8,1,1.4,2.2,2,3.5c0.5-0.8,1.1-1.7,1.7-2.5
			c0.6-0.8,1.4-1.6,2.2-2.2c1.9-1.5,3.9-2.1,6-1.8c2.1,0.3,3.9,1,5.4,2.4c1.5,1.3,2.5,3,3.1,5C719.5,52.1,719.1,54.2,717.9,56.3z
			 M696.2,58c0-1.5-0.2-2.9-0.5-4.3c-0.4-1.4-1.1-2.4-2.1-3.1c-1.7-1.2-3.6-0.9-5.7,0.6c-2.1,1.6-4.2,3.6-6.1,6.1
			c-1.9,2.5-3.7,5.1-5.2,7.7c-1.5,2.6-2.5,4.4-3.1,5.3c-1.6,2.8-3,5.7-4.3,8.7c-1.3,3-2.3,6-3.1,9.2c-0.2,0.8-0.4,1.9-0.5,3.3
			c-0.1,1.4-0.1,2.7,0,4.1c0.1,1.4,0.4,2.6,0.9,3.7c0.5,1.1,1.4,1.7,2.5,1.8c1.8,0.2,3.4-0.3,4.9-1.6c1.5-1.3,2.7-2.6,3.6-3.8
			c2.1-2.7,4-5.5,5.7-8.5c1.7-2.9,3.2-5.9,4.7-8.9c1.6-3.5,3.1-7.1,4.6-10.8C694,63.6,695.2,60.5,696.2,58z"/>
		<path class="st3" d="M754.4,96.1c-1.4,2.5-3.1,4.7-5.3,6.6c-2.1,1.9-4.5,3.3-7.1,4.3c-2.6,1-5.4,1.5-8.2,1.6
			c-2.9,0.1-5.7-0.5-8.4-1.6c-2.8-1-5.3-2.6-7.3-4.8c-2-2.1-3.6-4.5-4.6-7.1c-1-2.6-1.5-5.4-1.5-8.3c0.1-2.9,0.8-5.8,2.1-8.5
			c0.7-1.5,1.8-2.9,3.1-4.4c1.3-1.5,2.8-2.7,4.4-3.7c1.6-1,3.3-1.7,5.1-2c1.8-0.4,3.6-0.2,5.3,0.4c-0.3-2-0.4-3.8-0.3-5.3
			c0.1-2.7,0.7-5.5,1.8-8.2c1.1-2.8,2.6-5.3,4.4-7.5c1.8-2.2,4-4.1,6.5-5.6c2.5-1.5,5.2-2.2,8.2-2.2c3.2-0.1,6,0.8,8.2,2.7
			c2.2,1.9,3.7,4.1,4.4,6.7c0.7,2.6,0.7,5.2-0.2,7.9c-0.9,2.7-2.8,4.9-5.7,6.6c-1.2,0.6-2.5,1.2-4.2,1.7c-1.6,0.5-3.2,0.7-4.8,0.6
			c2.6,1.4,4.5,3.3,5.7,5.8c1.2,2.5,1.8,5.2,2,8.2c0.2,2.9-0.1,5.8-0.8,8.7C756.3,91.4,755.5,93.9,754.4,96.1z M729.3,91.3
			c-0.5,2.4-0.4,4.4,0.5,5.9c0.8,1.5,2,2.6,3.5,3.3c1.5,0.7,3.1,0.9,5,0.8c1.9-0.2,3.6-0.7,5.1-1.6c1.5-0.9,2.7-2.1,3.6-3.8
			c0.9-1.6,1.1-3.5,0.7-5.7c-0.5-2.4-1.8-4.4-3.9-6c-2.1-1.6-4-3.3-5.8-4.9c-0.5,1.2-1.2,2.2-2,3.1c-0.8,0.9-1.7,1.9-2.6,2.7
			c-0.9,0.9-1.7,1.8-2.4,2.8C730.2,88.9,729.6,90,729.3,91.3z M752.4,53.6c1.4,0.5,2.5,0.5,3.4,0c0.9-0.5,1.5-1.3,1.7-2.2
			c0.3-0.9,0.2-1.9-0.2-2.9c-0.4-1-1.3-1.6-2.5-2c-2.4-0.6-4.7-0.4-6.8,0.5c-2.1,1-3.7,2.5-4.9,4.5c-1,1.7-1.7,3.5-1.9,5.5
			c-0.2,2,0.3,3.9,1.4,5.7c0.6,0.9,1.3,1.5,2,1.7c0.7,0.2,1.4,0.3,2.1,0.3c-1.6-0.9-2.4-2.1-2.6-3.6c-0.2-1.5,0.1-2.9,0.8-4.2
			c0.7-1.3,1.7-2.4,3.1-3.1C749.4,53.1,750.8,53,752.4,53.6z"/>
	</g>
	<g>
		<g>
			<path class="st3" d="M193.3,72.5c-0.2-1.1-0.8-2.1-1.9-2.7c-1-0.7-2.1-0.8-3.3-0.2c-0.7,0.3-1.3,0.8-1.6,1.4
				c-0.4,0.6-0.8,1.2-1.2,1.9c-2.8,4.7-6,9.2-9.5,13.6c-3.5,4.4-7.6,8.1-12.3,11c-1.9,1.1-4,2.2-6.5,3.1c-2.4,0.9-4.8,1.4-7,1.5
				c-2.2,0.1-4.2-0.5-6-1.7c-1.8-1.2-2.9-3.4-3.4-6.5c-0.3-1.6-0.4-3.4-0.2-5.5c3.2,0,6.6-0.1,10.1-0.2c3.5-0.2,6.9-0.6,10.2-1.4
				c3.3-0.8,6.3-2,9.1-3.8c2.8-1.8,5.1-4.4,6.9-7.8c2-3.6,2.9-7.3,2.6-10.9c-0.2-3.6-1.4-7.3-3.4-10.9c-2.8-4.9-6.3-8.1-10.4-9.6
				c-4.1-1.5-9-1.9-14.6-1.2c-3.6,0.5-6.9,1.7-9.7,3.6s-5.3,4.2-7.5,6.9c-2.2,2.7-4,5.7-5.5,8.9c-1.8,3.8-3.1,7.5-3.9,11.3
				c-2.3,3.8-4.6,7.6-7.1,11.3c-1.9,2.8-4.1,5.9-6.8,9.2c-2.6,3.3-5.6,6-9,8.1c-0.3-1.2-0.3-2.8,0.1-4.7c0.4-1.9,0.9-3.8,1.5-5.8
				c0.6-2,1.3-4,2-5.9c0.7-1.9,1.3-3.5,1.9-4.8c1.5-3.8,3-7.6,4.5-11.4c1.6-3.7,3.2-7.4,5-11.1c2.6-5.6,5.3-11.2,8.1-16.7
				c2.8-5.5,5.7-11.1,8.7-16.7c1.3-2.5,1.6-4.8,0.7-6.9c-0.9-2.1-2.3-3.7-4.2-4.8c-1.9-1.1-4.1-1.5-6.4-1.2c-2.3,0.3-4.3,1.6-5.8,4
				c-2.8,4.2-5.4,8.6-7.7,13.2c-2.3,4.7-4.5,9.4-6.6,14c-2.6,5.8-4.9,11.7-7,17.5c-2.1,5.9-3.9,11.9-5.5,18.2
				c-0.5,2.1-1,4.7-1.3,7.9c-0.4,3.2-0.4,6.3,0,9.4c0.4,3.1,1.3,5.8,2.7,8.3c1.5,2.4,3.8,4,7,4.8c2.1,0.4,4.4-0.2,6.9-1.9
				c2.5-1.7,5-3.9,7.4-6.5c2.4-2.7,4.7-5.4,6.8-8.3l3.5-4.3c0.8,5.3,3.1,10.1,7.1,14.5c3.7,4.1,7.9,6.3,12.6,6.6
				c4.7,0.4,9.5-0.4,14.3-2.3c5.6-2.2,10.8-5.2,15.6-9c4.8-3.8,9-8.2,12.6-12.9c0.5-0.7,1.2-1.6,2-2.6c0.8-1,1.6-2.1,2.4-3.2
				c0.8-1.1,1.5-2.3,2-3.4C193.2,74.5,193.4,73.5,193.3,72.5z M144.8,73.6c1.1-2.4,2.4-4.7,3.7-7c0.6-1,1.6-2.5,2.8-4.5
				c1.2-2,2.7-3.8,4.3-5.6c1.6-1.8,3.3-3.2,5-4.3c1.7-1.1,3.4-1.2,4.9-0.4c1.1,0.6,1.5,1.8,1.2,3.5c-0.4,1.7-1,3.5-1.9,5.5
				c-0.9,1.9-2,3.8-3.1,5.5c-1.1,1.8-2,3-2.5,3.6c-2.3,2.7-4.9,5-7.8,7c-2.9,2-6.1,3.4-9.5,4.2C142.7,78.5,143.7,76,144.8,73.6z"/>
		</g>
	</g>
	<g>
		<path class="st3" d="M612.9,122.3h5.7c4,0,7,2.7,7,6.7c0,4.1-2.9,6.2-6.4,6.2h-6.3V122.3z M617.9,133.6c2.7,0,3.8-2.6,3.8-5.1
			c0-2.5-1.4-4.6-3.9-4.6h-1.2v9.7H617.9z"/>
		<path class="st3" d="M628.3,135.2v-13h8.2v1.8h-4.6v3.7h4.4v1.8h-4.4v4h4.8v1.8H628.3z"/>
		<path class="st3" d="M655.8,126c-1-1.3-1.8-2.6-3.8-2.6c-2.7,0-3.4,2.9-3.4,5.2s0.7,5.2,3.4,5.2c2.3,0,3.3-1.2,4.1-2.8l1.5,1.1
			c-1.2,2.5-3.2,3.5-6,3.5c-4,0-7-2.8-7-6.8s2.9-6.8,7-6.8c2.9,0,4.2,0.9,5.7,3L655.8,126z"/>
		<path class="st3" d="M666.3,121.9c3.9,0,6.9,3,6.9,6.8s-3,6.8-6.9,6.8s-6.9-3-6.9-6.8S662.4,121.9,666.3,121.9z M666.3,134
			c2.5,0,2.9-3.3,2.9-5.3s-0.4-5.3-2.9-5.3c-2.5,0-2.9,3.3-2.9,5.3S663.8,134,666.3,134z"/>
		<path class="st3" d="M675.9,122.3h3.6v11.2h4.8v1.8h-8.4V122.3z"/>
		<path class="st3" d="M692.3,121.9c3.9,0,6.9,3,6.9,6.8s-3,6.8-6.9,6.8s-6.9-3-6.9-6.8S688.4,121.9,692.3,121.9z M692.3,134
			c2.5,0,2.9-3.3,2.9-5.3s-0.4-5.3-2.9-5.3c-2.5,0-2.9,3.3-2.9,5.3S689.8,134,692.3,134z"/>
		<path class="st3" d="M701.5,122.3h3.7l2.9,6.8l2.8-6.8h3.6v13h-3.6V127h-0.1l-3.4,8.2h-0.4l-3.4-8.1h0v8.1h-1.9V122.3z"/>
		<path class="st3" d="M723.8,122.3c2.2,0.1,4.4,1,4.4,3.5c0,1.5-1.1,2.7-2.7,2.9v0c1.7,0.4,3.2,1.5,3.2,3.3c0,2.6-2.7,3.2-4.2,3.2
			h-7v-13H723.8z M721.2,127.7h1.4c1.1,0,1.9-0.6,1.9-1.9c0-1.3-0.8-2-2.1-2h-1.2V127.7z M721.2,133.6h1.5c1.1,0,2-0.6,2-2
			c0-1.3-1-2.2-2.3-2.2h-1.3V133.6z"/>
		<path class="st3" d="M731,122.3h3.6v13H731V122.3z"/>
		<path class="st3" d="M736.5,135.2l4.5-13h3.6l4.8,13h-4l-1.4-3.8h-4.4l-1.3,3.8H736.5z M740.3,129.7h3.2l-1.7-4.5h0L740.3,129.7z"
			/>
	</g>
</g>
</svg>
