<?xml version="1.0" encoding="utf-8"?>
<!-- Generator: Adobe Illustrator 19.2.1, SVG Export Plug-In . SVG Version: 6.00 Build 0)  -->
<svg version="1.1" id="Capa_1" xmlns="http://www.w3.org/2000/svg" xmlns:xlink="http://www.w3.org/1999/xlink" x="0px" y="0px"
	 viewBox="0 0 512 512" style="enable-background:new 0 0 512 512;" xml:space="preserve">
<style type="text/css">
	.st0{fill:#6FA3C8;}
	.st1{fill:#2D527F;}
</style>
<g>
	<g>
		<path class="st0" d="M81.5,171.6c6.1,7,11.2,14.4,15.4,22.4c4.2,7.9,4.7,16.8,1.9,26.6c-1.9,6.1-4.7,11.7-8.9,15.8
			c-4.2,4.7-8.9,7.9-14,10.7c-5.1,2.8-10.7,4.2-16.8,4.2c-6.1,0.5-11.7-0.9-17.2-3.3C26,242,15.8,230.8,10.6,215S4.1,181.9,6,162.8
			c1.9-18.6,6.5-37.3,14-55.5s15.8-33.1,25.2-44.7C61.9,43,80.5,29.9,102,22.9c21-7,43.3-10.3,66.2-9.8c22.8,0.5,45.7,3.3,69,8.4
			c22.8,5.1,44.7,9.8,64.3,14c8.9,1.9,18.6,3.7,28.9,5.6s20.5,3.3,30.3,3.7c9.8,0.9,20,0.5,29.8-0.9c9.8-1.4,19.1-4.7,28-9.8
			c6.5-3.7,13.5-7,20.5-8.9c7-2.3,14.4-1.9,22.4,0.5c9.8,3.3,17.7,9.8,23.3,19.1c5.6,9.3,7.5,19.1,5.1,29.4
			c-2.3,9.8-7.5,18.2-14.9,23.8c-7.5,6.1-16.3,10.3-26.6,12.6c-9.8,2.3-20,3.7-30.8,3.7c-10.3,0-19.6-0.9-28-2.3
			c-13-1.9-25.6-5.1-37.8-9.3c-12.6-4.2-24.7-8.9-36.8-14c-12.1-5.1-24.2-10.3-36.4-15.4c-12.1-5.1-24.2-9.8-35.9-14.4
			c-10.3-3.7-21-7.5-31.2-10.7c-10.3-3.3-21-5.6-31.2-7.5c-10.3-1.9-21-1.9-31.7-0.9c-10.7,0.9-21.4,3.7-32.6,7.9
			c-14,5.6-25.2,13.5-33.6,22.8c-8.4,9.3-14.4,20-17.7,31.2c-3.3,11.2-3.7,22.8-0.9,35C66.1,149.3,72.2,160.9,81.5,171.6z
			 M83.8,475.5c2.3-27,5.6-54.1,9.8-81.1c4.2-27,9.8-54.1,17.2-81.1c-2.3,0.9-5.1,1.9-7.9,3.3c-2.8,1.4-5.6,1.4-7.9,0.5
			c-3.7-0.5-7-2.3-9.3-5.1c-2.3-2.8-3.7-6.1-4.2-9.3c-0.5-3.3,0-6.5,1.4-9.8c1.4-3.3,4.2-5.6,7.9-7.5c9.8-5.1,20-8.9,30.8-10.7
			l14.9-49.9c5.6-18.6,11.7-38.2,17.2-58.3c6.1-20.5,14.4-39.1,25.2-55.5c4.2-6.5,9.8-12.6,16.8-17.2c7-4.7,14-7.9,21.4-9.3
			c7.5-1.4,14.4-0.9,21.9,1.9c7,2.8,13.5,8.4,18.6,16.8c4.7,7.5,6.5,15.4,5.1,23.3c-1.4,7.9-3.7,16.3-7.5,24.2
			c-3.7,7.9-8.4,15.8-13.5,23.3c-5.1,7.5-9.3,14.9-13,21.4c-6.1,11.2-12.1,22.8-17.2,34.5c-5.6,11.7-10.7,23.3-15.8,35.4
			c9.3-0.9,18.6-2.8,27.5-5.1c8.9-2.3,17.2-5.6,26.1-9.8c7.9-4.2,16.3-7.9,24.7-11.2c8.4-3.3,17.2-3.3,26.6,0.9
			c6.1,2.3,11.2,6.1,15.8,10.7c4.2,4.7,7.5,10.3,8.9,15.8c1.9,6.1,2.3,12.1,1.4,18.2s-2.8,12.1-7,17.7c-6.5,9.3-15.4,15.8-26.6,19.1
			c-10.7,3.3-22.4,4.2-34.5,3.7c-12.1-0.9-24.2-2.8-35.9-6.1c-12.1-3.3-22.4-6.5-31.2-9.3l-13.5-4.2c-10.7,25.6-20.5,48.9-28.4,70.4
			c-7.9,21-15.4,42.4-21.9,62.9c-2.3,7.5-4.2,15.8-5.1,24.7c-0.9,8.9-3.3,16.3-7,23.3c-2.3,4.2-5.1,7-8.9,7.9
			c-3.7,0.9-7,0.9-10.7-0.9c-3.7-1.4-6.5-3.7-8.9-7C84.3,483.9,83.3,479.7,83.8,475.5z"/>
	</g>
	<g>
		<path class="st1" d="M99.2,181.9c6.1,7,11.2,14.4,15.4,22.4c4.2,7.9,4.7,16.8,1.9,26.6c-1.9,6.1-4.7,11.7-8.9,15.8
			c-4.2,4.7-8.9,7.9-14,10.7c-5.1,2.8-10.7,4.2-16.8,4.2c-6.1,0.5-11.7-0.9-17.2-3.3c-15.8-6.1-26.1-17.2-31.2-33.1
			s-6.5-33.1-4.7-52.2c1.9-18.6,6.5-37.3,14-55.5s15.8-33.1,25.2-44.7c16.8-19.6,35.4-32.6,56.9-39.6c21-7,43.3-10.3,66.2-9.8
			c22.8,0.5,45.7,3.3,69,8.4c22.8,5.1,44.7,9.8,64.3,14c8.9,1.9,18.6,3.7,28.9,5.6c10.3,1.9,20.5,3.3,30.3,3.7
			c9.8,0.9,20,0.5,29.8-0.9s19.1-4.7,28-9.8c6.5-3.7,13.5-7,20.5-8.9c7-2.3,14.4-1.9,22.4,0.5c9.8,3.3,17.7,9.8,23.3,19.1
			s7.5,19.1,5.1,29.4c-2.3,9.8-7.5,18.2-14.9,23.8c-7.5,6.1-16.3,10.3-26.6,12.6c-9.8,2.3-20,3.7-30.8,3.7c-10.3,0-19.6-0.9-28-2.3
			c-13-1.9-25.6-5.1-37.8-9.3c-12.6-4.2-24.7-8.9-36.8-14c-12.1-5.1-24.2-10.3-36.4-15.4c-12.1-5.1-24.2-9.8-35.9-14.4
			c-10.3-3.7-21-7.5-31.2-10.7c-10.3-3.3-21-5.6-31.2-7.5C187.7,49,177,49,166.3,50c-10.7,0.9-21.4,3.7-32.6,7.9
			c-14,5.6-25.2,13.5-33.6,22.8c-8.4,9.3-14.4,20-17.7,31.2c-3.3,11.2-3.7,22.8-0.9,35C83.3,159.5,89.4,171.2,99.2,181.9z
			 M101.1,485.8c2.3-27,5.6-54.1,9.8-81.1c4.2-27,9.8-54.1,17.2-81.1c-2.3,0.9-5.1,1.9-7.9,3.3c-2.8,1.4-5.6,1.4-7.9,0.5
			c-3.7-0.5-7-2.3-9.3-5.1c-2.3-2.8-3.7-6.1-4.2-9.3s0-6.5,1.4-9.8c1.4-3.3,4.2-5.6,7.9-7.5c9.8-5.1,20-8.9,30.8-10.7l14.9-49.9
			c5.6-18.6,11.7-38.2,17.2-58.3c6.1-20.5,14.4-39.1,25.2-55.5c4.2-6.5,9.8-12.6,16.8-17.2c7-4.7,14-7.9,21.4-9.3
			c7.5-1.4,14.4-0.9,21.9,1.9c7,2.8,13.5,8.4,18.6,16.8c4.7,7.5,6.5,15.4,5.1,23.3s-3.7,16.3-7.5,24.2c-3.7,7.9-8.4,15.8-13.5,23.3
			c-5.1,7.5-9.3,14.9-13,21.4c-6.1,11.2-12.1,22.8-17.2,34.5c-5.6,11.7-10.7,23.3-15.8,35.4c9.3-0.9,18.6-2.8,27.5-5.1
			c8.9-2.3,17.2-5.6,26.1-9.8c7.9-4.2,16.3-7.9,24.7-11.2c8.4-3.3,17.2-3.3,26.6,0.9c6.1,2.3,11.2,6.1,15.8,10.7
			c4.2,4.7,7.5,10.3,8.9,15.8c1.9,6.1,2.3,12.1,1.4,18.2c-0.9,6.1-2.8,12.1-7,17.7c-6.5,9.3-15.4,15.8-26.6,19.1
			c-10.7,3.3-22.4,4.2-34.5,3.7c-12.1-0.9-24.2-2.8-35.9-6.1c-12.1-3.3-22.4-6.5-31.2-9.3l-13.5-4.2c-10.7,25.6-20.5,48.9-28.4,70.4
			c-7.9,21-15.4,42.4-21.9,62.9c-2.3,7.5-4.2,15.8-5.1,24.7c-0.9,8.9-3.3,16.3-7,23.3c-2.3,4.2-5.1,7-8.9,7.9s-7,0.9-10.7-0.9
			c-3.7-1.4-6.5-3.7-8.9-7C101.5,493.7,100.6,489.9,101.1,485.8z"/>
	</g>
</g>
</svg>
